<svg width="13" height="13" viewBox="0 0 13 13" fill="none" xmlns="http://www.w3.org/2000/svg">
<path d="M0.16086 11.1649C-0.0420505 11.3522 -0.0547036 11.6686 0.132598 11.8715C0.3199 12.0744 0.63623 12.0871 0.83914 11.8998L0.5 11.5323L0.16086 11.1649ZM12.7565 0.699851C12.7675 0.42393 12.5528 0.191304 12.2768 0.180266L7.78044 0.000410115C7.50451 -0.0106269 7.27189 0.204105 7.26085 0.480026C7.24981 0.755948 7.46455 0.988574 7.74047 0.999611L11.7373 1.15948L11.5774 5.15629C11.5664 5.43221 11.7811 5.66483 12.057 5.67587C12.3329 5.68691 12.5656 5.47218 12.5766 5.19626L12.7565 0.699851ZM0.5 11.5323L0.83914 11.8998L12.596 1.04727L12.2569 0.679867L11.9177 0.312465L0.16086 11.1649L0.5 11.5323Z" fill="black"/>
</svg>
