<svg width="19" height="16" viewBox="0 0 19 16" fill="none" xmlns="http://www.w3.org/2000/svg">
<path d="M4.03758 0.709246C6.87451 2.25666 8.7443 6.64098 8.7443 6.64098C8.76377 6.95052 9.39272 8.52172 8.7443 10.9608C7.98534 13.8157 7.06792 14.9153 6.61655 15.0872C5.89442 16.2736 4.8972 16.0544 4.48886 15.7965C3.76673 15.9512 3.19935 15.3022 3.00592 14.9583C2.18063 14.8551 2.01729 13.7977 2.03879 13.2819C1.62614 12.9725 1.52298 12.0784 1.52298 11.6701C1.11034 9.60684 2.64056 8.18838 3.45725 7.73706C1.39403 7.94338 0.964194 6.49053 1.00718 5.73832C0.542954 5.42884 0.555888 4.53478 0.620383 4.12643C-0.0501627 2.99167 -0.0458644 1.84831 0.040103 1.41848C0.190546 0.537311 1.20066 -0.838164 4.03758 0.709246Z" fill="white"/>
<path d="M14.6461 0.699871C11.8092 2.24728 9.93938 6.63161 9.93938 6.63161C9.91991 6.94115 9.29095 8.51234 9.93938 10.9515C10.6983 13.8064 11.6158 14.9059 12.0671 15.0779C12.7893 16.2642 13.7865 16.045 14.1948 15.7871C14.9169 15.9418 15.4843 15.2928 15.6778 14.9489C16.503 14.8458 16.6664 13.7884 16.6449 13.2726C17.0575 12.9631 17.1607 12.069 17.1607 11.6607C17.5733 9.59747 16.0431 8.17901 15.2264 7.72768C17.2896 7.934 17.7195 6.48116 17.6765 5.72894C18.1407 5.41946 18.1278 4.5254 18.0633 4.11706C18.7338 2.98229 18.7295 1.83893 18.6436 1.4091C18.4931 0.527936 17.483 -0.847539 14.6461 0.699871Z" fill="white"/>
</svg>
