<svg width="433" height="244" viewBox="0 0 433 244" fill="none" xmlns="http://www.w3.org/2000/svg">
<g clip-path="url(#clip0_3_703)">
<line x1="36.5" y1="272" x2="36.5" y2="-28" stroke="url(#paint0_linear_3_703)"/>
<line x1="66.5" y1="272" x2="66.5" y2="-28" stroke="url(#paint1_linear_3_703)"/>
<line x1="96.5" y1="272" x2="96.5" y2="-28" stroke="url(#paint2_linear_3_703)"/>
<line x1="126.5" y1="272" x2="126.5" y2="-28" stroke="url(#paint3_linear_3_703)"/>
<line x1="156.5" y1="272" x2="156.5" y2="-28" stroke="url(#paint4_linear_3_703)"/>
<line x1="186.5" y1="272" x2="186.5" y2="-28" stroke="url(#paint5_linear_3_703)"/>
<line x1="216.5" y1="272" x2="216.5" y2="-28" stroke="url(#paint6_linear_3_703)"/>
<line x1="246.5" y1="272" x2="246.5" y2="-28" stroke="url(#paint7_linear_3_703)"/>
<line x1="276.5" y1="272" x2="276.5" y2="-28" stroke="url(#paint8_linear_3_703)"/>
<line x1="306.5" y1="272" x2="306.5" y2="-28" stroke="url(#paint9_linear_3_703)"/>
<line x1="336.5" y1="272" x2="336.5" y2="-28" stroke="url(#paint10_linear_3_703)"/>
<line x1="366.5" y1="272" x2="366.5" y2="-28" stroke="url(#paint11_linear_3_703)"/>
<line x1="396.5" y1="272" x2="396.5" y2="-28" stroke="url(#paint12_linear_3_703)"/>
<line x1="-28" y1="31.5" x2="462" y2="31.5" stroke="url(#paint13_linear_3_703)"/>
<line x1="-28" y1="61.5" x2="462" y2="61.5" stroke="url(#paint14_linear_3_703)"/>
<line x1="-28" y1="91.5" x2="462" y2="91.5" stroke="url(#paint15_linear_3_703)"/>
<line x1="-29" y1="151.5" x2="461" y2="151.5" stroke="url(#paint16_linear_3_703)"/>
<line x1="-28" y1="121.5" x2="462" y2="121.5" stroke="url(#paint17_linear_3_703)"/>
<line x1="-28" y1="181.5" x2="462" y2="181.5" stroke="url(#paint18_linear_3_703)"/>
<line x1="-28" y1="211.5" x2="462" y2="211.5" stroke="url(#paint19_linear_3_703)"/>
<rect x="284" y="99" width="46" height="46" rx="23" fill="white"/>
<g clip-path="url(#clip1_3_703)">
<rect x="287" y="102" width="40" height="40" rx="20" fill="#2B59E4" fill-opacity="0.1"/>
<circle cx="307" cy="117" r="7" fill="white"/>
<circle cx="307" cy="145" r="17" fill="white"/>
</g>
<rect x="286" y="101" width="42" height="42" rx="21" stroke="#2B59E4" stroke-opacity="0.1" stroke-width="2"/>
<rect x="104" y="99" width="46" height="46" rx="23" fill="white"/>
<g clip-path="url(#clip2_3_703)">
<rect x="107" y="102" width="40" height="40" rx="20" fill="#18C315" fill-opacity="0.1"/>
<circle cx="127" cy="117" r="7" fill="white"/>
<circle cx="127" cy="145" r="17" fill="white"/>
</g>
<rect x="106" y="101" width="42" height="42" rx="21" stroke="#18C315" stroke-opacity="0.1" stroke-width="2"/>
<rect x="242" y="94" width="56" height="56" rx="28" fill="white"/>
<g clip-path="url(#clip3_3_703)">
<rect x="245" y="97" width="50" height="50" rx="25" fill="#FFB300" fill-opacity="0.2"/>
<circle cx="270" cy="114" r="8" fill="white"/>
<circle cx="270" cy="151" r="23" fill="white"/>
</g>
<rect x="244" y="96" width="52" height="52" rx="26" stroke="#FFB300" stroke-opacity="0.2" stroke-width="2"/>
<rect x="136" y="92" width="56" height="56" rx="28" fill="white"/>
<g clip-path="url(#clip4_3_703)">
<rect x="139" y="95" width="50" height="50" rx="25" fill="#997DE3" fill-opacity="0.2"/>
<circle cx="164" cy="113" r="8" fill="white"/>
<circle cx="164" cy="150" r="23" fill="white"/>
</g>
<rect x="138" y="94" width="52" height="52" rx="26" stroke="#997DE3" stroke-opacity="0.2" stroke-width="2"/>
<rect x="174" y="79" width="86" height="86" rx="43" fill="white"/>
<g clip-path="url(#clip5_3_703)">
<rect x="178" y="83" width="78" height="78" rx="39" fill="#FF3131"/>
<circle cx="217" cy="109" r="15" fill="white"/>
<circle cx="217" cy="166" r="35" fill="white"/>
</g>
<rect x="177" y="82" width="80" height="80" rx="40" stroke="#FF3131" stroke-width="2"/>
</g>
<defs>
<linearGradient id="paint0_linear_3_703" x1="37.5" y1="-28" x2="37.5" y2="272" gradientUnits="userSpaceOnUse">
<stop stop-color="white" stop-opacity="0"/>
<stop offset="0.5" stop-color="#DDDDDD" stop-opacity="0.2"/>
<stop offset="1" stop-color="white" stop-opacity="0"/>
</linearGradient>
<linearGradient id="paint1_linear_3_703" x1="67.5" y1="-28" x2="67.5" y2="272" gradientUnits="userSpaceOnUse">
<stop stop-color="white" stop-opacity="0"/>
<stop offset="0.5" stop-color="#DDDDDD" stop-opacity="0.4"/>
<stop offset="1" stop-color="white" stop-opacity="0"/>
</linearGradient>
<linearGradient id="paint2_linear_3_703" x1="97.5" y1="-28" x2="97.5" y2="272" gradientUnits="userSpaceOnUse">
<stop stop-color="white" stop-opacity="0"/>
<stop offset="0.5" stop-color="#DDDDDD" stop-opacity="0.6"/>
<stop offset="1" stop-color="white" stop-opacity="0"/>
</linearGradient>
<linearGradient id="paint3_linear_3_703" x1="127.5" y1="-28" x2="127.5" y2="272" gradientUnits="userSpaceOnUse">
<stop stop-color="white" stop-opacity="0"/>
<stop offset="0.5" stop-color="#DDDDDD" stop-opacity="0.8"/>
<stop offset="1" stop-color="white" stop-opacity="0"/>
</linearGradient>
<linearGradient id="paint4_linear_3_703" x1="157.5" y1="-28" x2="157.5" y2="272" gradientUnits="userSpaceOnUse">
<stop stop-color="white" stop-opacity="0"/>
<stop offset="0.5" stop-color="#DDDDDD"/>
<stop offset="1" stop-color="white" stop-opacity="0"/>
</linearGradient>
<linearGradient id="paint5_linear_3_703" x1="187.5" y1="-28" x2="187.5" y2="272" gradientUnits="userSpaceOnUse">
<stop stop-color="white" stop-opacity="0"/>
<stop offset="0.5" stop-color="#DDDDDD"/>
<stop offset="1" stop-color="white" stop-opacity="0"/>
</linearGradient>
<linearGradient id="paint6_linear_3_703" x1="217.5" y1="-28" x2="217.5" y2="272" gradientUnits="userSpaceOnUse">
<stop stop-color="white" stop-opacity="0"/>
<stop offset="0.5" stop-color="#DDDDDD"/>
<stop offset="1" stop-color="white" stop-opacity="0"/>
</linearGradient>
<linearGradient id="paint7_linear_3_703" x1="247.5" y1="-28" x2="247.5" y2="272" gradientUnits="userSpaceOnUse">
<stop stop-color="white" stop-opacity="0"/>
<stop offset="0.5" stop-color="#DDDDDD"/>
<stop offset="1" stop-color="white" stop-opacity="0"/>
</linearGradient>
<linearGradient id="paint8_linear_3_703" x1="277.5" y1="-28" x2="277.5" y2="272" gradientUnits="userSpaceOnUse">
<stop stop-color="white" stop-opacity="0"/>
<stop offset="0.5" stop-color="#DDDDDD"/>
<stop offset="1" stop-color="white" stop-opacity="0"/>
</linearGradient>
<linearGradient id="paint9_linear_3_703" x1="307.5" y1="-28" x2="307.5" y2="272" gradientUnits="userSpaceOnUse">
<stop stop-color="white" stop-opacity="0"/>
<stop offset="0.5" stop-color="#DDDDDD" stop-opacity="0.8"/>
<stop offset="1" stop-color="white" stop-opacity="0"/>
</linearGradient>
<linearGradient id="paint10_linear_3_703" x1="337.5" y1="-28" x2="337.5" y2="272" gradientUnits="userSpaceOnUse">
<stop stop-color="white" stop-opacity="0"/>
<stop offset="0.5" stop-color="#DDDDDD" stop-opacity="0.6"/>
<stop offset="1" stop-color="white" stop-opacity="0"/>
</linearGradient>
<linearGradient id="paint11_linear_3_703" x1="367.5" y1="-28" x2="367.5" y2="272" gradientUnits="userSpaceOnUse">
<stop stop-color="white" stop-opacity="0"/>
<stop offset="0.5" stop-color="#DDDDDD" stop-opacity="0.4"/>
<stop offset="1" stop-color="white" stop-opacity="0"/>
</linearGradient>
<linearGradient id="paint12_linear_3_703" x1="397.5" y1="-28" x2="397.5" y2="272" gradientUnits="userSpaceOnUse">
<stop offset="0.2" stop-color="white" stop-opacity="0"/>
<stop offset="0.5" stop-color="#DDDDDD" stop-opacity="0.2"/>
<stop offset="0.8" stop-color="white" stop-opacity="0"/>
</linearGradient>
<linearGradient id="paint13_linear_3_703" x1="-28" y1="32.5" x2="462" y2="32.5" gradientUnits="userSpaceOnUse">
<stop stop-color="white" stop-opacity="0"/>
<stop offset="0.5" stop-color="#DDDDDD" stop-opacity="0.4"/>
<stop offset="1" stop-color="white" stop-opacity="0"/>
</linearGradient>
<linearGradient id="paint14_linear_3_703" x1="-28" y1="62.5" x2="462" y2="62.5" gradientUnits="userSpaceOnUse">
<stop stop-color="white" stop-opacity="0"/>
<stop offset="0.4" stop-color="#DDDDDD" stop-opacity="0.6"/>
<stop offset="0.6" stop-color="#DDDDDD" stop-opacity="0.6"/>
<stop offset="1" stop-color="white" stop-opacity="0"/>
</linearGradient>
<linearGradient id="paint15_linear_3_703" x1="-28" y1="92.5" x2="462" y2="92.5" gradientUnits="userSpaceOnUse">
<stop stop-color="white" stop-opacity="0"/>
<stop offset="0.3" stop-color="#DDDDDD" stop-opacity="0.8"/>
<stop offset="0.7" stop-color="#DDDDDD" stop-opacity="0.8"/>
<stop offset="1" stop-color="white" stop-opacity="0"/>
</linearGradient>
<linearGradient id="paint16_linear_3_703" x1="-29" y1="152.5" x2="461" y2="152.5" gradientUnits="userSpaceOnUse">
<stop stop-color="white" stop-opacity="0"/>
<stop offset="0.3" stop-color="#DDDDDD" stop-opacity="0.8"/>
<stop offset="0.7" stop-color="#DDDDDD" stop-opacity="0.8"/>
<stop offset="1" stop-color="white" stop-opacity="0"/>
</linearGradient>
<linearGradient id="paint17_linear_3_703" x1="-28" y1="122.5" x2="462" y2="122.5" gradientUnits="userSpaceOnUse">
<stop stop-color="white" stop-opacity="0"/>
<stop offset="0.2" stop-color="#DDDDDD"/>
<stop offset="0.8" stop-color="#DDDDDD"/>
<stop offset="1" stop-color="white" stop-opacity="0"/>
</linearGradient>
<linearGradient id="paint18_linear_3_703" x1="-28" y1="182.5" x2="462" y2="182.5" gradientUnits="userSpaceOnUse">
<stop stop-color="white" stop-opacity="0"/>
<stop offset="0.4" stop-color="#DDDDDD" stop-opacity="0.6"/>
<stop offset="0.6" stop-color="#DDDDDD" stop-opacity="0.6"/>
<stop offset="1" stop-color="white" stop-opacity="0"/>
</linearGradient>
<linearGradient id="paint19_linear_3_703" x1="-28" y1="212.5" x2="462" y2="212.5" gradientUnits="userSpaceOnUse">
<stop stop-color="white" stop-opacity="0"/>
<stop offset="0.5" stop-color="#DDDDDD" stop-opacity="0.4"/>
<stop offset="1" stop-color="white" stop-opacity="0"/>
</linearGradient>
<clipPath id="clip0_3_703">
<rect width="433" height="244" rx="10" fill="white"/>
</clipPath>
<clipPath id="clip1_3_703">
<rect x="287" y="102" width="40" height="40" rx="20" fill="white"/>
</clipPath>
<clipPath id="clip2_3_703">
<rect x="107" y="102" width="40" height="40" rx="20" fill="white"/>
</clipPath>
<clipPath id="clip3_3_703">
<rect x="245" y="97" width="50" height="50" rx="25" fill="white"/>
</clipPath>
<clipPath id="clip4_3_703">
<rect x="139" y="95" width="50" height="50" rx="25" fill="white"/>
</clipPath>
<clipPath id="clip5_3_703">
<rect x="178" y="83" width="78" height="78" rx="39" fill="white"/>
</clipPath>
</defs>
</svg>
