<svg width="433" height="244" viewBox="0 0 433 244" fill="none" xmlns="http://www.w3.org/2000/svg">
<g clip-path="url(#clip0_3_991)">
<line x1="36.5" y1="272" x2="36.5" y2="-28" stroke="url(#paint0_linear_3_991)"/>
<line x1="66.5" y1="272" x2="66.5" y2="-28" stroke="url(#paint1_linear_3_991)"/>
<line x1="96.5" y1="272" x2="96.5" y2="-28" stroke="url(#paint2_linear_3_991)"/>
<line x1="126.5" y1="272" x2="126.5" y2="-28" stroke="url(#paint3_linear_3_991)"/>
<line x1="156.5" y1="272" x2="156.5" y2="-28" stroke="url(#paint4_linear_3_991)"/>
<line x1="186.5" y1="272" x2="186.5" y2="-28" stroke="url(#paint5_linear_3_991)"/>
<line x1="216.5" y1="272" x2="216.5" y2="-28" stroke="url(#paint6_linear_3_991)"/>
<line x1="246.5" y1="272" x2="246.5" y2="-28" stroke="url(#paint7_linear_3_991)"/>
<line x1="276.5" y1="272" x2="276.5" y2="-28" stroke="url(#paint8_linear_3_991)"/>
<line x1="306.5" y1="272" x2="306.5" y2="-28" stroke="url(#paint9_linear_3_991)"/>
<line x1="336.5" y1="272" x2="336.5" y2="-28" stroke="url(#paint10_linear_3_991)"/>
<line x1="366.5" y1="272" x2="366.5" y2="-28" stroke="url(#paint11_linear_3_991)"/>
<line x1="396.5" y1="272" x2="396.5" y2="-28" stroke="url(#paint12_linear_3_991)"/>
<line x1="-28" y1="31.5" x2="462" y2="31.5" stroke="url(#paint13_linear_3_991)"/>
<line x1="-28" y1="61.5" x2="462" y2="61.5" stroke="url(#paint14_linear_3_991)"/>
<line x1="-28" y1="91.5" x2="462" y2="91.5" stroke="url(#paint15_linear_3_991)"/>
<line x1="-29" y1="151.5" x2="461" y2="151.5" stroke="url(#paint16_linear_3_991)"/>
<line x1="-28" y1="121.5" x2="462" y2="121.5" stroke="url(#paint17_linear_3_991)"/>
<line x1="-28" y1="181.5" x2="462" y2="181.5" stroke="url(#paint18_linear_3_991)"/>
<line x1="-28" y1="211.5" x2="462" y2="211.5" stroke="url(#paint19_linear_3_991)"/>
<path d="M-14 179.952C-3.83333 164.285 20.6 136.752 37 151.952C53.4 167.152 69.1667 151.619 75 141.952C83.5 132.119 103.3 112.752 114.5 113.952C125.7 115.152 133.5 131.452 136 139.452C138.333 149.619 148.4 164.352 170 141.952C172.167 138.286 180.3 138.152 195.5 166.952C210.7 195.752 218.167 152.285 220 126.952C220.5 116.785 223.5 97.2521 231.5 100.452C239.5 103.652 248.5 124.785 252 134.952C258.167 144.452 272.5 151.952 280.5 105.952C288.5 59.952 307.5 57.1187 316 61.452C321.167 65.7854 334 81.6521 344 110.452C354 139.252 369.167 122.452 375.5 110.452C379.667 104.119 390.4 100.152 400 134.952C409.6 169.752 440.333 140.452 454.5 121.452" stroke="url(#paint20_linear_3_991)"/>
<g opacity="0.4">
<circle cx="96.5" cy="121.5" r="4.5" fill="#111111" fill-opacity="0.05"/>
<circle cx="96.5" cy="121.5" r="3" fill="#111111"/>
</g>
<g opacity="0.2">
<circle cx="66.5" cy="151.5" r="4.5" fill="#111111" fill-opacity="0.05"/>
<circle cx="66.5" cy="151.5" r="3" fill="#111111"/>
</g>
<g opacity="0.05">
<circle cx="36.5" cy="151.5" r="4.5" fill="#111111" fill-opacity="0.05"/>
<circle cx="36.5" cy="151.5" r="3" fill="#111111"/>
</g>
<g opacity="0.5">
<circle cx="126.5" cy="121.5" r="4.5" fill="#111111" fill-opacity="0.05"/>
<circle cx="126.5" cy="121.5" r="3" fill="#111111"/>
</g>
<circle cx="156.5" cy="151.5" r="4.5" fill="#111111" fill-opacity="0.05"/>
<circle cx="156.5" cy="151.5" r="3" fill="#111111"/>
<circle cx="186.5" cy="151.5" r="4.5" fill="#111111" fill-opacity="0.05"/>
<circle cx="186.5" cy="151.5" r="3" fill="#111111"/>
<circle cx="216.5" cy="151.5" r="4.5" fill="#111111" fill-opacity="0.05"/>
<circle cx="216.5" cy="151.5" r="3" fill="#111111"/>
<circle cx="246.5" cy="121.5" r="4.5" fill="#111111" fill-opacity="0.05"/>
<circle cx="246.5" cy="121.5" r="3" fill="#111111"/>
<circle cx="276.5" cy="121.5" r="4.5" fill="#111111" fill-opacity="0.05"/>
<circle cx="276.5" cy="121.5" r="3" fill="#111111"/>
<g opacity="0.4">
<circle cx="336.5" cy="91.5" r="4.5" fill="#111111" fill-opacity="0.05"/>
<circle cx="336.5" cy="91.5" r="3" fill="#111111"/>
</g>
<g opacity="0.2">
<circle cx="366.5" cy="121.5" r="4.5" fill="#111111" fill-opacity="0.05"/>
<circle cx="366.5" cy="121.5" r="3" fill="#111111"/>
</g>
<g opacity="0.05">
<circle cx="396.5" cy="121.5" r="4.5" fill="#111111" fill-opacity="0.05"/>
<circle cx="396.5" cy="121.5" r="3" fill="#111111"/>
</g>
<circle cx="307" cy="62" r="7" fill="#35B307" fill-opacity="0.05"/>
<circle cx="307" cy="62" r="5" fill="#02D926"/>
</g>
<defs>
<linearGradient id="paint0_linear_3_991" x1="37.5" y1="-28" x2="37.5" y2="272" gradientUnits="userSpaceOnUse">
<stop stop-color="white" stop-opacity="0"/>
<stop offset="0.5" stop-color="#DDDDDD" stop-opacity="0.2"/>
<stop offset="1" stop-color="white" stop-opacity="0"/>
</linearGradient>
<linearGradient id="paint1_linear_3_991" x1="67.5" y1="-28" x2="67.5" y2="272" gradientUnits="userSpaceOnUse">
<stop stop-color="white" stop-opacity="0"/>
<stop offset="0.5" stop-color="#DDDDDD" stop-opacity="0.4"/>
<stop offset="1" stop-color="white" stop-opacity="0"/>
</linearGradient>
<linearGradient id="paint2_linear_3_991" x1="97.5" y1="-28" x2="97.5" y2="272" gradientUnits="userSpaceOnUse">
<stop stop-color="white" stop-opacity="0"/>
<stop offset="0.5" stop-color="#DDDDDD" stop-opacity="0.6"/>
<stop offset="1" stop-color="white" stop-opacity="0"/>
</linearGradient>
<linearGradient id="paint3_linear_3_991" x1="127.5" y1="-28" x2="127.5" y2="272" gradientUnits="userSpaceOnUse">
<stop stop-color="white" stop-opacity="0"/>
<stop offset="0.5" stop-color="#DDDDDD" stop-opacity="0.8"/>
<stop offset="1" stop-color="white" stop-opacity="0"/>
</linearGradient>
<linearGradient id="paint4_linear_3_991" x1="157.5" y1="-28" x2="157.5" y2="272" gradientUnits="userSpaceOnUse">
<stop stop-color="white" stop-opacity="0"/>
<stop offset="0.5" stop-color="#DDDDDD"/>
<stop offset="1" stop-color="white" stop-opacity="0"/>
</linearGradient>
<linearGradient id="paint5_linear_3_991" x1="187.5" y1="-28" x2="187.5" y2="272" gradientUnits="userSpaceOnUse">
<stop stop-color="white" stop-opacity="0"/>
<stop offset="0.5" stop-color="#DDDDDD"/>
<stop offset="1" stop-color="white" stop-opacity="0"/>
</linearGradient>
<linearGradient id="paint6_linear_3_991" x1="217.5" y1="-28" x2="217.5" y2="272" gradientUnits="userSpaceOnUse">
<stop stop-color="white" stop-opacity="0"/>
<stop offset="0.5" stop-color="#DDDDDD"/>
<stop offset="1" stop-color="white" stop-opacity="0"/>
</linearGradient>
<linearGradient id="paint7_linear_3_991" x1="247.5" y1="-28" x2="247.5" y2="272" gradientUnits="userSpaceOnUse">
<stop stop-color="white" stop-opacity="0"/>
<stop offset="0.5" stop-color="#DDDDDD"/>
<stop offset="1" stop-color="white" stop-opacity="0"/>
</linearGradient>
<linearGradient id="paint8_linear_3_991" x1="277.5" y1="-28" x2="277.5" y2="272" gradientUnits="userSpaceOnUse">
<stop stop-color="white" stop-opacity="0"/>
<stop offset="0.5" stop-color="#DDDDDD"/>
<stop offset="1" stop-color="white" stop-opacity="0"/>
</linearGradient>
<linearGradient id="paint9_linear_3_991" x1="307.5" y1="-28" x2="307.5" y2="272" gradientUnits="userSpaceOnUse">
<stop stop-color="white" stop-opacity="0"/>
<stop offset="0.5" stop-color="#DDDDDD" stop-opacity="0.8"/>
<stop offset="1" stop-color="white" stop-opacity="0"/>
</linearGradient>
<linearGradient id="paint10_linear_3_991" x1="337.5" y1="-28" x2="337.5" y2="272" gradientUnits="userSpaceOnUse">
<stop stop-color="white" stop-opacity="0"/>
<stop offset="0.5" stop-color="#DDDDDD" stop-opacity="0.6"/>
<stop offset="1" stop-color="white" stop-opacity="0"/>
</linearGradient>
<linearGradient id="paint11_linear_3_991" x1="367.5" y1="-28" x2="367.5" y2="272" gradientUnits="userSpaceOnUse">
<stop stop-color="white" stop-opacity="0"/>
<stop offset="0.5" stop-color="#DDDDDD" stop-opacity="0.4"/>
<stop offset="1" stop-color="white" stop-opacity="0"/>
</linearGradient>
<linearGradient id="paint12_linear_3_991" x1="397.5" y1="-28" x2="397.5" y2="272" gradientUnits="userSpaceOnUse">
<stop offset="0.2" stop-color="white" stop-opacity="0"/>
<stop offset="0.5" stop-color="#DDDDDD" stop-opacity="0.2"/>
<stop offset="0.8" stop-color="white" stop-opacity="0"/>
</linearGradient>
<linearGradient id="paint13_linear_3_991" x1="-28" y1="32.5" x2="462" y2="32.5" gradientUnits="userSpaceOnUse">
<stop stop-color="white" stop-opacity="0"/>
<stop offset="0.5" stop-color="#DDDDDD" stop-opacity="0.4"/>
<stop offset="1" stop-color="white" stop-opacity="0"/>
</linearGradient>
<linearGradient id="paint14_linear_3_991" x1="-28" y1="62.5" x2="462" y2="62.5" gradientUnits="userSpaceOnUse">
<stop stop-color="white" stop-opacity="0"/>
<stop offset="0.4" stop-color="#DDDDDD" stop-opacity="0.6"/>
<stop offset="0.6" stop-color="#DDDDDD" stop-opacity="0.6"/>
<stop offset="1" stop-color="white" stop-opacity="0"/>
</linearGradient>
<linearGradient id="paint15_linear_3_991" x1="-28" y1="92.5" x2="462" y2="92.5" gradientUnits="userSpaceOnUse">
<stop stop-color="white" stop-opacity="0"/>
<stop offset="0.3" stop-color="#DDDDDD" stop-opacity="0.8"/>
<stop offset="0.7" stop-color="#DDDDDD" stop-opacity="0.8"/>
<stop offset="1" stop-color="white" stop-opacity="0"/>
</linearGradient>
<linearGradient id="paint16_linear_3_991" x1="-29" y1="152.5" x2="461" y2="152.5" gradientUnits="userSpaceOnUse">
<stop stop-color="white" stop-opacity="0"/>
<stop offset="0.3" stop-color="#DDDDDD" stop-opacity="0.8"/>
<stop offset="0.7" stop-color="#DDDDDD" stop-opacity="0.8"/>
<stop offset="1" stop-color="white" stop-opacity="0"/>
</linearGradient>
<linearGradient id="paint17_linear_3_991" x1="-28" y1="122.5" x2="462" y2="122.5" gradientUnits="userSpaceOnUse">
<stop stop-color="white" stop-opacity="0"/>
<stop offset="0.2" stop-color="#DDDDDD"/>
<stop offset="0.8" stop-color="#DDDDDD"/>
<stop offset="1" stop-color="white" stop-opacity="0"/>
</linearGradient>
<linearGradient id="paint18_linear_3_991" x1="-28" y1="182.5" x2="462" y2="182.5" gradientUnits="userSpaceOnUse">
<stop stop-color="white" stop-opacity="0"/>
<stop offset="0.4" stop-color="#DDDDDD" stop-opacity="0.6"/>
<stop offset="0.6" stop-color="#DDDDDD" stop-opacity="0.6"/>
<stop offset="1" stop-color="white" stop-opacity="0"/>
</linearGradient>
<linearGradient id="paint19_linear_3_991" x1="-28" y1="212.5" x2="462" y2="212.5" gradientUnits="userSpaceOnUse">
<stop stop-color="white" stop-opacity="0"/>
<stop offset="0.5" stop-color="#DDDDDD" stop-opacity="0.4"/>
<stop offset="1" stop-color="white" stop-opacity="0"/>
</linearGradient>
<linearGradient id="paint20_linear_3_991" x1="454.5" y1="119.976" x2="-14" y2="119.976" gradientUnits="userSpaceOnUse">
<stop stop-color="white" stop-opacity="0"/>
<stop offset="0.5" stop-color="#8181FF"/>
<stop offset="1" stop-color="white" stop-opacity="0"/>
</linearGradient>
<clipPath id="clip0_3_991">
<rect width="433" height="244" rx="10" fill="white"/>
</clipPath>
</defs>
</svg>
