<svg width="433" height="244" viewBox="0 0 433 244" fill="none" xmlns="http://www.w3.org/2000/svg">
<g clip-path="url(#clip0_3_754)">
<line x1="36.5" y1="272" x2="36.5" y2="-28" stroke="url(#paint0_linear_3_754)"/>
<line x1="66.5" y1="272" x2="66.5" y2="-28" stroke="url(#paint1_linear_3_754)"/>
<line x1="96.5" y1="272" x2="96.5" y2="-28" stroke="url(#paint2_linear_3_754)"/>
<line x1="126.5" y1="272" x2="126.5" y2="-28" stroke="url(#paint3_linear_3_754)"/>
<line x1="156.5" y1="272" x2="156.5" y2="-28" stroke="url(#paint4_linear_3_754)"/>
<line x1="186.5" y1="272" x2="186.5" y2="-28" stroke="url(#paint5_linear_3_754)"/>
<line x1="216.5" y1="272" x2="216.5" y2="-28" stroke="url(#paint6_linear_3_754)"/>
<line x1="246.5" y1="272" x2="246.5" y2="-28" stroke="url(#paint7_linear_3_754)"/>
<line x1="276.5" y1="272" x2="276.5" y2="-28" stroke="url(#paint8_linear_3_754)"/>
<line x1="306.5" y1="272" x2="306.5" y2="-28" stroke="url(#paint9_linear_3_754)"/>
<line x1="336.5" y1="272" x2="336.5" y2="-28" stroke="url(#paint10_linear_3_754)"/>
<line x1="366.5" y1="272" x2="366.5" y2="-28" stroke="url(#paint11_linear_3_754)"/>
<line x1="396.5" y1="272" x2="396.5" y2="-28" stroke="url(#paint12_linear_3_754)"/>
<line x1="-28" y1="31.5" x2="462" y2="31.5" stroke="url(#paint13_linear_3_754)"/>
<line x1="-28" y1="61.5" x2="462" y2="61.5" stroke="url(#paint14_linear_3_754)"/>
<line x1="-28" y1="91.5" x2="462" y2="91.5" stroke="url(#paint15_linear_3_754)"/>
<line x1="-29" y1="151.5" x2="461" y2="151.5" stroke="url(#paint16_linear_3_754)"/>
<line x1="-28" y1="121.5" x2="462" y2="121.5" stroke="url(#paint17_linear_3_754)"/>
<line x1="-28" y1="181.5" x2="462" y2="181.5" stroke="url(#paint18_linear_3_754)"/>
<line x1="-28" y1="211.5" x2="462" y2="211.5" stroke="url(#paint19_linear_3_754)"/>
<rect x="101.5" y="100.5" width="230" height="44" rx="9.5" fill="white" stroke="#DDDDDD"/>
<rect x="137.5" y="159.5" width="159" height="44" rx="9.5" fill="white" stroke="#DDDDDD"/>
<rect x="137.5" y="39.5" width="159" height="44" rx="9.5" fill="white" stroke="#DDDDDD"/>
<rect x="144" y="114" width="177" height="17" rx="4" fill="#DDDDDD"/>
<rect x="178" y="173" width="108" height="17" rx="4" fill="#F7F7F7"/>
<rect x="178" y="53" width="108" height="17" rx="4" fill="#F7F7F7"/>
<path d="M309.229 137.506C309.691 137.547 310.132 137.717 310.504 137.996L326.5 150L326.672 150.14C328.355 151.628 327.325 154.5 325 154.5H317.105C316.876 154.5 316.649 154.553 316.442 154.654C316.237 154.755 316.056 154.901 315.916 155.083L315.917 155.084L310.984 161.515C309.531 163.41 306.502 162.381 306.502 159.992L306.504 139.996L306.51 139.822C306.538 139.419 306.663 139.027 306.877 138.682C307.121 138.287 307.47 137.967 307.886 137.76C308.301 137.552 308.766 137.464 309.229 137.506Z" fill="#FFB300" stroke="white"/>
<circle cx="123" cy="123" r="11" fill="#8CFD94" fill-opacity="0.3"/>
<circle cx="123" cy="123" r="3" fill="#37F543"/>
<circle cx="158" cy="182" r="11" fill="#F7F7F7"/>
<circle cx="158" cy="62" r="11" fill="#F7F7F7"/>
</g>
<defs>
<linearGradient id="paint0_linear_3_754" x1="37.5" y1="-28" x2="37.5" y2="272" gradientUnits="userSpaceOnUse">
<stop stop-color="white" stop-opacity="0"/>
<stop offset="0.5" stop-color="#DDDDDD" stop-opacity="0.2"/>
<stop offset="1" stop-color="white" stop-opacity="0"/>
</linearGradient>
<linearGradient id="paint1_linear_3_754" x1="67.5" y1="-28" x2="67.5" y2="272" gradientUnits="userSpaceOnUse">
<stop stop-color="white" stop-opacity="0"/>
<stop offset="0.5" stop-color="#DDDDDD" stop-opacity="0.4"/>
<stop offset="1" stop-color="white" stop-opacity="0"/>
</linearGradient>
<linearGradient id="paint2_linear_3_754" x1="97.5" y1="-28" x2="97.5" y2="272" gradientUnits="userSpaceOnUse">
<stop stop-color="white" stop-opacity="0"/>
<stop offset="0.5" stop-color="#DDDDDD" stop-opacity="0.6"/>
<stop offset="1" stop-color="white" stop-opacity="0"/>
</linearGradient>
<linearGradient id="paint3_linear_3_754" x1="127.5" y1="-28" x2="127.5" y2="272" gradientUnits="userSpaceOnUse">
<stop stop-color="white" stop-opacity="0"/>
<stop offset="0.5" stop-color="#DDDDDD" stop-opacity="0.8"/>
<stop offset="1" stop-color="white" stop-opacity="0"/>
</linearGradient>
<linearGradient id="paint4_linear_3_754" x1="157.5" y1="-28" x2="157.5" y2="272" gradientUnits="userSpaceOnUse">
<stop stop-color="white" stop-opacity="0"/>
<stop offset="0.5" stop-color="#DDDDDD"/>
<stop offset="1" stop-color="white" stop-opacity="0"/>
</linearGradient>
<linearGradient id="paint5_linear_3_754" x1="187.5" y1="-28" x2="187.5" y2="272" gradientUnits="userSpaceOnUse">
<stop stop-color="white" stop-opacity="0"/>
<stop offset="0.5" stop-color="#DDDDDD"/>
<stop offset="1" stop-color="white" stop-opacity="0"/>
</linearGradient>
<linearGradient id="paint6_linear_3_754" x1="217.5" y1="-28" x2="217.5" y2="272" gradientUnits="userSpaceOnUse">
<stop stop-color="white" stop-opacity="0"/>
<stop offset="0.5" stop-color="#DDDDDD"/>
<stop offset="1" stop-color="white" stop-opacity="0"/>
</linearGradient>
<linearGradient id="paint7_linear_3_754" x1="247.5" y1="-28" x2="247.5" y2="272" gradientUnits="userSpaceOnUse">
<stop stop-color="white" stop-opacity="0"/>
<stop offset="0.5" stop-color="#DDDDDD"/>
<stop offset="1" stop-color="white" stop-opacity="0"/>
</linearGradient>
<linearGradient id="paint8_linear_3_754" x1="277.5" y1="-28" x2="277.5" y2="272" gradientUnits="userSpaceOnUse">
<stop stop-color="white" stop-opacity="0"/>
<stop offset="0.5" stop-color="#DDDDDD"/>
<stop offset="1" stop-color="white" stop-opacity="0"/>
</linearGradient>
<linearGradient id="paint9_linear_3_754" x1="307.5" y1="-28" x2="307.5" y2="272" gradientUnits="userSpaceOnUse">
<stop stop-color="white" stop-opacity="0"/>
<stop offset="0.5" stop-color="#DDDDDD" stop-opacity="0.8"/>
<stop offset="1" stop-color="white" stop-opacity="0"/>
</linearGradient>
<linearGradient id="paint10_linear_3_754" x1="337.5" y1="-28" x2="337.5" y2="272" gradientUnits="userSpaceOnUse">
<stop stop-color="white" stop-opacity="0"/>
<stop offset="0.5" stop-color="#DDDDDD" stop-opacity="0.6"/>
<stop offset="1" stop-color="white" stop-opacity="0"/>
</linearGradient>
<linearGradient id="paint11_linear_3_754" x1="367.5" y1="-28" x2="367.5" y2="272" gradientUnits="userSpaceOnUse">
<stop stop-color="white" stop-opacity="0"/>
<stop offset="0.5" stop-color="#DDDDDD" stop-opacity="0.4"/>
<stop offset="1" stop-color="white" stop-opacity="0"/>
</linearGradient>
<linearGradient id="paint12_linear_3_754" x1="397.5" y1="-28" x2="397.5" y2="272" gradientUnits="userSpaceOnUse">
<stop offset="0.2" stop-color="white" stop-opacity="0"/>
<stop offset="0.5" stop-color="#DDDDDD" stop-opacity="0.2"/>
<stop offset="0.8" stop-color="white" stop-opacity="0"/>
</linearGradient>
<linearGradient id="paint13_linear_3_754" x1="-28" y1="32.5" x2="462" y2="32.5" gradientUnits="userSpaceOnUse">
<stop stop-color="white" stop-opacity="0"/>
<stop offset="0.5" stop-color="#DDDDDD" stop-opacity="0.4"/>
<stop offset="1" stop-color="white" stop-opacity="0"/>
</linearGradient>
<linearGradient id="paint14_linear_3_754" x1="-28" y1="62.5" x2="462" y2="62.5" gradientUnits="userSpaceOnUse">
<stop stop-color="white" stop-opacity="0"/>
<stop offset="0.4" stop-color="#DDDDDD" stop-opacity="0.6"/>
<stop offset="0.6" stop-color="#DDDDDD" stop-opacity="0.6"/>
<stop offset="1" stop-color="white" stop-opacity="0"/>
</linearGradient>
<linearGradient id="paint15_linear_3_754" x1="-28" y1="92.5" x2="462" y2="92.5" gradientUnits="userSpaceOnUse">
<stop stop-color="white" stop-opacity="0"/>
<stop offset="0.3" stop-color="#DDDDDD" stop-opacity="0.8"/>
<stop offset="0.7" stop-color="#DDDDDD" stop-opacity="0.8"/>
<stop offset="1" stop-color="white" stop-opacity="0"/>
</linearGradient>
<linearGradient id="paint16_linear_3_754" x1="-29" y1="152.5" x2="461" y2="152.5" gradientUnits="userSpaceOnUse">
<stop stop-color="white" stop-opacity="0"/>
<stop offset="0.3" stop-color="#DDDDDD" stop-opacity="0.8"/>
<stop offset="0.7" stop-color="#DDDDDD" stop-opacity="0.8"/>
<stop offset="1" stop-color="white" stop-opacity="0"/>
</linearGradient>
<linearGradient id="paint17_linear_3_754" x1="-28" y1="122.5" x2="462" y2="122.5" gradientUnits="userSpaceOnUse">
<stop stop-color="white" stop-opacity="0"/>
<stop offset="0.2" stop-color="#DDDDDD"/>
<stop offset="0.8" stop-color="#DDDDDD"/>
<stop offset="1" stop-color="white" stop-opacity="0"/>
</linearGradient>
<linearGradient id="paint18_linear_3_754" x1="-28" y1="182.5" x2="462" y2="182.5" gradientUnits="userSpaceOnUse">
<stop stop-color="white" stop-opacity="0"/>
<stop offset="0.4" stop-color="#DDDDDD" stop-opacity="0.6"/>
<stop offset="0.6" stop-color="#DDDDDD" stop-opacity="0.6"/>
<stop offset="1" stop-color="white" stop-opacity="0"/>
</linearGradient>
<linearGradient id="paint19_linear_3_754" x1="-28" y1="212.5" x2="462" y2="212.5" gradientUnits="userSpaceOnUse">
<stop stop-color="white" stop-opacity="0"/>
<stop offset="0.5" stop-color="#DDDDDD" stop-opacity="0.4"/>
<stop offset="1" stop-color="white" stop-opacity="0"/>
</linearGradient>
<clipPath id="clip0_3_754">
<rect width="433" height="244" rx="10" fill="white"/>
</clipPath>
</defs>
</svg>
