<svg width="433" height="244" viewBox="0 0 433 244" fill="none" xmlns="http://www.w3.org/2000/svg">
<g clip-path="url(#clip0_3_938)">
<line x1="36.5" y1="272" x2="36.5" y2="-28" stroke="url(#paint0_linear_3_938)"/>
<line x1="66.5" y1="272" x2="66.5" y2="-28" stroke="url(#paint1_linear_3_938)"/>
<line x1="96.5" y1="272" x2="96.5" y2="-28" stroke="url(#paint2_linear_3_938)"/>
<line x1="126.5" y1="272" x2="126.5" y2="-28" stroke="url(#paint3_linear_3_938)"/>
<line x1="156.5" y1="272" x2="156.5" y2="-28" stroke="url(#paint4_linear_3_938)"/>
<line x1="186.5" y1="272" x2="186.5" y2="-28" stroke="url(#paint5_linear_3_938)"/>
<line x1="246.5" y1="272" x2="246.5" y2="-28" stroke="url(#paint6_linear_3_938)"/>
<line x1="276.5" y1="272" x2="276.5" y2="-28" stroke="url(#paint7_linear_3_938)"/>
<line x1="306.5" y1="272" x2="306.5" y2="-28" stroke="url(#paint8_linear_3_938)"/>
<line x1="336.5" y1="272" x2="336.5" y2="-28" stroke="url(#paint9_linear_3_938)"/>
<line x1="366.5" y1="272" x2="366.5" y2="-28" stroke="url(#paint10_linear_3_938)"/>
<line x1="396.5" y1="272" x2="396.5" y2="-28" stroke="url(#paint11_linear_3_938)"/>
<line x1="-28" y1="31.5" x2="462" y2="31.5" stroke="url(#paint12_linear_3_938)"/>
<line x1="-28" y1="61.5" x2="462" y2="61.5" stroke="url(#paint13_linear_3_938)"/>
<line x1="-28" y1="91.5" x2="462" y2="91.5" stroke="url(#paint14_linear_3_938)"/>
<line x1="-29" y1="151.5" x2="461" y2="151.5" stroke="url(#paint15_linear_3_938)"/>
<line x1="-28" y1="121.5" x2="462" y2="121.5" stroke="url(#paint16_linear_3_938)"/>
<line x1="-28" y1="181.5" x2="462" y2="181.5" stroke="url(#paint17_linear_3_938)"/>
<line x1="-28" y1="211.5" x2="462" y2="211.5" stroke="url(#paint18_linear_3_938)"/>
<rect x="80.5" y="104.5" width="272" height="157" rx="9.5" fill="white" stroke="#DDDDDD"/>
<line x1="216.5" y1="272" x2="216.5" y2="-28" stroke="url(#paint19_linear_3_938)"/>
<rect x="116" y="152" width="91" height="6" rx="3" fill="#DDDDDD"/>
<rect x="116" y="170" width="91" height="6" rx="3" fill="#DDDDDD"/>
<rect x="116" y="188" width="91" height="6" rx="3" fill="#DDDDDD"/>
<rect x="116" y="206" width="91" height="6" rx="3" fill="#DDDDDD"/>
<rect x="116" y="224" width="91" height="6" rx="3" fill="#DDDDDD"/>
<circle cx="100" cy="155" r="6" fill="#FFB300" fill-opacity="0.1"/>
<circle cx="100" cy="155" r="2" fill="#FFB300"/>
<circle cx="100" cy="173" r="6" fill="#FFB300" fill-opacity="0.1"/>
<circle cx="100" cy="173" r="2" fill="#FFB300"/>
<circle cx="100" cy="191" r="6" fill="#FFB300" fill-opacity="0.1"/>
<circle cx="100" cy="191" r="2" fill="#FFB300"/>
<circle cx="100" cy="209" r="6" fill="#FFB300" fill-opacity="0.1"/>
<circle cx="100" cy="209" r="2" fill="#FFB300"/>
<circle cx="100" cy="227" r="6" fill="#FFB300" fill-opacity="0.1"/>
<circle cx="100" cy="227" r="2" fill="#FFB300"/>
<circle cx="241" cy="155" r="6" fill="#FFB300" fill-opacity="0.1"/>
<circle cx="241" cy="191" r="6" fill="#FFB300" fill-opacity="0.1"/>
<circle cx="263" cy="155" r="6" fill="#DDDDDD"/>
<circle cx="263" cy="191" r="6" fill="#DDDDDD"/>
<circle cx="285" cy="155" r="6" fill="#DDDDDD"/>
<circle cx="285" cy="191" r="6" fill="#DDDDDD"/>
<circle cx="307" cy="155" r="6" fill="#DDDDDD"/>
<circle cx="241" cy="155" r="2" fill="#FFB300"/>
<circle cx="241" cy="191" r="2" fill="#FFB300"/>
</g>
<defs>
<linearGradient id="paint0_linear_3_938" x1="37.5" y1="-28" x2="37.5" y2="272" gradientUnits="userSpaceOnUse">
<stop stop-color="white" stop-opacity="0"/>
<stop offset="0.5" stop-color="#DDDDDD" stop-opacity="0.2"/>
<stop offset="1" stop-color="white" stop-opacity="0"/>
</linearGradient>
<linearGradient id="paint1_linear_3_938" x1="67.5" y1="-28" x2="67.5" y2="272" gradientUnits="userSpaceOnUse">
<stop stop-color="white" stop-opacity="0"/>
<stop offset="0.5" stop-color="#DDDDDD" stop-opacity="0.4"/>
<stop offset="1" stop-color="white" stop-opacity="0"/>
</linearGradient>
<linearGradient id="paint2_linear_3_938" x1="97.5" y1="-28" x2="97.5" y2="272" gradientUnits="userSpaceOnUse">
<stop stop-color="white" stop-opacity="0"/>
<stop offset="0.5" stop-color="#DDDDDD" stop-opacity="0.6"/>
<stop offset="1" stop-color="white" stop-opacity="0"/>
</linearGradient>
<linearGradient id="paint3_linear_3_938" x1="127.5" y1="-28" x2="127.5" y2="272" gradientUnits="userSpaceOnUse">
<stop stop-color="white" stop-opacity="0"/>
<stop offset="0.5" stop-color="#DDDDDD" stop-opacity="0.8"/>
<stop offset="1" stop-color="white" stop-opacity="0"/>
</linearGradient>
<linearGradient id="paint4_linear_3_938" x1="157.5" y1="-28" x2="157.5" y2="272" gradientUnits="userSpaceOnUse">
<stop stop-color="white" stop-opacity="0"/>
<stop offset="0.5" stop-color="#DDDDDD"/>
<stop offset="1" stop-color="white" stop-opacity="0"/>
</linearGradient>
<linearGradient id="paint5_linear_3_938" x1="187.5" y1="-28" x2="187.5" y2="272" gradientUnits="userSpaceOnUse">
<stop stop-color="white" stop-opacity="0"/>
<stop offset="0.5" stop-color="#DDDDDD"/>
<stop offset="1" stop-color="white" stop-opacity="0"/>
</linearGradient>
<linearGradient id="paint6_linear_3_938" x1="247.5" y1="-28" x2="247.5" y2="272" gradientUnits="userSpaceOnUse">
<stop stop-color="white" stop-opacity="0"/>
<stop offset="0.5" stop-color="#DDDDDD"/>
<stop offset="1" stop-color="white" stop-opacity="0"/>
</linearGradient>
<linearGradient id="paint7_linear_3_938" x1="277.5" y1="-28" x2="277.5" y2="272" gradientUnits="userSpaceOnUse">
<stop stop-color="white" stop-opacity="0"/>
<stop offset="0.5" stop-color="#DDDDDD"/>
<stop offset="1" stop-color="white" stop-opacity="0"/>
</linearGradient>
<linearGradient id="paint8_linear_3_938" x1="307.5" y1="-28" x2="307.5" y2="272" gradientUnits="userSpaceOnUse">
<stop stop-color="white" stop-opacity="0"/>
<stop offset="0.5" stop-color="#DDDDDD" stop-opacity="0.8"/>
<stop offset="1" stop-color="white" stop-opacity="0"/>
</linearGradient>
<linearGradient id="paint9_linear_3_938" x1="337.5" y1="-28" x2="337.5" y2="272" gradientUnits="userSpaceOnUse">
<stop stop-color="white" stop-opacity="0"/>
<stop offset="0.5" stop-color="#DDDDDD" stop-opacity="0.6"/>
<stop offset="1" stop-color="white" stop-opacity="0"/>
</linearGradient>
<linearGradient id="paint10_linear_3_938" x1="367.5" y1="-28" x2="367.5" y2="272" gradientUnits="userSpaceOnUse">
<stop stop-color="white" stop-opacity="0"/>
<stop offset="0.5" stop-color="#DDDDDD" stop-opacity="0.4"/>
<stop offset="1" stop-color="white" stop-opacity="0"/>
</linearGradient>
<linearGradient id="paint11_linear_3_938" x1="397.5" y1="-28" x2="397.5" y2="272" gradientUnits="userSpaceOnUse">
<stop offset="0.2" stop-color="white" stop-opacity="0"/>
<stop offset="0.5" stop-color="#DDDDDD" stop-opacity="0.2"/>
<stop offset="0.8" stop-color="white" stop-opacity="0"/>
</linearGradient>
<linearGradient id="paint12_linear_3_938" x1="-28" y1="32.5" x2="462" y2="32.5" gradientUnits="userSpaceOnUse">
<stop stop-color="white" stop-opacity="0"/>
<stop offset="0.5" stop-color="#DDDDDD" stop-opacity="0.4"/>
<stop offset="1" stop-color="white" stop-opacity="0"/>
</linearGradient>
<linearGradient id="paint13_linear_3_938" x1="-28" y1="62.5" x2="462" y2="62.5" gradientUnits="userSpaceOnUse">
<stop stop-color="white" stop-opacity="0"/>
<stop offset="0.4" stop-color="#DDDDDD" stop-opacity="0.6"/>
<stop offset="0.6" stop-color="#DDDDDD" stop-opacity="0.6"/>
<stop offset="1" stop-color="white" stop-opacity="0"/>
</linearGradient>
<linearGradient id="paint14_linear_3_938" x1="-28" y1="92.5" x2="462" y2="92.5" gradientUnits="userSpaceOnUse">
<stop stop-color="white" stop-opacity="0"/>
<stop offset="0.3" stop-color="#DDDDDD" stop-opacity="0.8"/>
<stop offset="0.7" stop-color="#DDDDDD" stop-opacity="0.8"/>
<stop offset="1" stop-color="white" stop-opacity="0"/>
</linearGradient>
<linearGradient id="paint15_linear_3_938" x1="-29" y1="152.5" x2="461" y2="152.5" gradientUnits="userSpaceOnUse">
<stop stop-color="white" stop-opacity="0"/>
<stop offset="0.3" stop-color="#DDDDDD" stop-opacity="0.8"/>
<stop offset="0.7" stop-color="#DDDDDD" stop-opacity="0.8"/>
<stop offset="1" stop-color="white" stop-opacity="0"/>
</linearGradient>
<linearGradient id="paint16_linear_3_938" x1="-28" y1="122.5" x2="462" y2="122.5" gradientUnits="userSpaceOnUse">
<stop stop-color="white" stop-opacity="0"/>
<stop offset="0.2" stop-color="#DDDDDD"/>
<stop offset="0.8" stop-color="#DDDDDD"/>
<stop offset="1" stop-color="white" stop-opacity="0"/>
</linearGradient>
<linearGradient id="paint17_linear_3_938" x1="-28" y1="182.5" x2="462" y2="182.5" gradientUnits="userSpaceOnUse">
<stop stop-color="white" stop-opacity="0"/>
<stop offset="0.4" stop-color="#DDDDDD" stop-opacity="0.6"/>
<stop offset="0.6" stop-color="#DDDDDD" stop-opacity="0.6"/>
<stop offset="1" stop-color="white" stop-opacity="0"/>
</linearGradient>
<linearGradient id="paint18_linear_3_938" x1="-28" y1="212.5" x2="462" y2="212.5" gradientUnits="userSpaceOnUse">
<stop stop-color="white" stop-opacity="0"/>
<stop offset="0.5" stop-color="#DDDDDD" stop-opacity="0.4"/>
<stop offset="1" stop-color="white" stop-opacity="0"/>
</linearGradient>
<linearGradient id="paint19_linear_3_938" x1="217.5" y1="-28" x2="217.5" y2="272" gradientUnits="userSpaceOnUse">
<stop stop-color="white" stop-opacity="0"/>
<stop offset="0.5" stop-color="#22D039"/>
</linearGradient>
<clipPath id="clip0_3_938">
<rect width="433" height="244" rx="10" fill="white"/>
</clipPath>
</defs>
</svg>
