<svg width="433" height="244" viewBox="0 0 433 244" fill="none" xmlns="http://www.w3.org/2000/svg">
<g clip-path="url(#clip0_3_893)">
<line x1="36.5" y1="272" x2="36.5" y2="-28" stroke="url(#paint0_linear_3_893)"/>
<line x1="66.5" y1="272" x2="66.5" y2="-28" stroke="url(#paint1_linear_3_893)"/>
<line x1="96.5" y1="272" x2="96.5" y2="-28" stroke="url(#paint2_linear_3_893)"/>
<line x1="126.5" y1="272" x2="126.5" y2="-28" stroke="url(#paint3_linear_3_893)"/>
<line x1="156.5" y1="272" x2="156.5" y2="-28" stroke="url(#paint4_linear_3_893)"/>
<line x1="186.5" y1="272" x2="186.5" y2="-28" stroke="url(#paint5_linear_3_893)"/>
<line x1="216.5" y1="272" x2="216.5" y2="-28" stroke="url(#paint6_linear_3_893)"/>
<line x1="246.5" y1="272" x2="246.5" y2="-28" stroke="url(#paint7_linear_3_893)"/>
<line x1="276.5" y1="272" x2="276.5" y2="-28" stroke="url(#paint8_linear_3_893)"/>
<line x1="306.5" y1="272" x2="306.5" y2="-28" stroke="url(#paint9_linear_3_893)"/>
<line x1="336.5" y1="272" x2="336.5" y2="-28" stroke="url(#paint10_linear_3_893)"/>
<line x1="366.5" y1="272" x2="366.5" y2="-28" stroke="url(#paint11_linear_3_893)"/>
<line x1="396.5" y1="272" x2="396.5" y2="-28" stroke="url(#paint12_linear_3_893)"/>
<line x1="-28" y1="31.5" x2="462" y2="31.5" stroke="url(#paint13_linear_3_893)"/>
<line x1="-28" y1="61.5" x2="462" y2="61.5" stroke="url(#paint14_linear_3_893)"/>
<line x1="-28" y1="91.5" x2="462" y2="91.5" stroke="url(#paint15_linear_3_893)"/>
<line x1="-29" y1="151.5" x2="461" y2="151.5" stroke="url(#paint16_linear_3_893)"/>
<line x1="-28" y1="121.5" x2="462" y2="121.5" stroke="url(#paint17_linear_3_893)"/>
<line x1="-28" y1="181.5" x2="462" y2="181.5" stroke="url(#paint18_linear_3_893)"/>
<line x1="-28" y1="211.5" x2="462" y2="211.5" stroke="url(#paint19_linear_3_893)"/>
<rect x="132.5" y="42.5" width="169" height="74" rx="9.5" fill="white" stroke="#DDDDDD"/>
<rect x="132.5" y="126.5" width="169" height="74" rx="9.5" fill="white" stroke="#DDDDDD"/>
<rect x="218" y="68" width="60" height="14" rx="4" fill="#DDDDDD"/>
<rect x="143" y="54" width="14" height="52" rx="4" fill="#DDDDDD"/>
<rect x="141" y="138" width="14" height="52" rx="4" fill="#DDDDDD"/>
<rect x="201" y="138" width="14" height="52" rx="4" fill="#EEEEEE"/>
<rect x="221" y="156" width="14" height="34" rx="4" fill="#F7F7F7"/>
<rect x="161" y="68" width="14" height="38" rx="4" fill="#EEEEEE"/>
<rect x="161" y="152" width="14" height="38" rx="4" fill="#F7F7F7"/>
<rect x="181" y="162" width="14" height="28" rx="4" fill="#DDDDDD"/>
<rect x="218" y="85" width="42" height="10" rx="4" fill="#F7F7F7"/>
<rect x="98" y="88" width="68" height="68" rx="12" fill="#DDDDDD" fill-opacity="0.15"/>
<rect x="102" y="92" width="60" height="60" rx="10" fill="white"/>
<path d="M138.667 135.333C137.556 135.333 136.611 134.945 135.833 134.167C135.056 133.389 134.667 132.445 134.667 131.333C134.667 131.2 134.7 130.889 134.767 130.4L125.4 124.933C125.045 125.267 124.633 125.528 124.167 125.717C123.7 125.907 123.2 126.001 122.667 126C121.556 126 120.611 125.611 119.833 124.833C119.056 124.056 118.667 123.111 118.667 122C118.667 120.889 119.056 119.945 119.833 119.167C120.611 118.389 121.556 118 122.667 118C123.2 118 123.7 118.095 124.167 118.284C124.633 118.473 125.045 118.734 125.4 119.067L134.767 113.6C134.722 113.445 134.695 113.295 134.684 113.151C134.673 113.007 134.668 112.845 134.667 112.667C134.667 111.556 135.056 110.611 135.833 109.833C136.611 109.056 137.556 108.667 138.667 108.667C139.778 108.667 140.722 109.056 141.5 109.833C142.278 110.611 142.667 111.556 142.667 112.667C142.667 113.778 142.278 114.722 141.5 115.5C140.722 116.278 139.778 116.667 138.667 116.667C138.133 116.667 137.633 116.572 137.167 116.383C136.7 116.193 136.289 115.933 135.933 115.6L126.567 121.067C126.611 121.222 126.639 121.373 126.651 121.517C126.662 121.662 126.668 121.823 126.667 122C126.666 122.177 126.661 122.338 126.651 122.484C126.641 122.63 126.613 122.78 126.567 122.933L135.933 128.4C136.289 128.067 136.7 127.806 137.167 127.617C137.633 127.429 138.133 127.334 138.667 127.333C139.778 127.333 140.722 127.722 141.5 128.5C142.278 129.278 142.667 130.222 142.667 131.333C142.667 132.445 142.278 133.389 141.5 134.167C140.722 134.945 139.778 135.333 138.667 135.333Z" fill="#7D95E3"/>
<path d="M155.229 137.506C155.691 137.548 156.132 137.718 156.504 137.996L172.5 150L172.672 150.14C174.355 151.629 173.325 154.5 171 154.5H163.105C162.876 154.5 162.649 154.553 162.442 154.654C162.237 154.755 162.056 154.902 161.916 155.083L161.917 155.084L156.984 161.515C155.531 163.41 152.502 162.381 152.502 159.992L152.504 139.996L152.51 139.822C152.538 139.419 152.663 139.027 152.877 138.682C153.121 138.287 153.47 137.967 153.886 137.76C154.301 137.552 154.766 137.464 155.229 137.506Z" fill="#22B52C" stroke="white"/>
</g>
<defs>
<linearGradient id="paint0_linear_3_893" x1="37.5" y1="-28" x2="37.5" y2="272" gradientUnits="userSpaceOnUse">
<stop stop-color="white" stop-opacity="0"/>
<stop offset="0.5" stop-color="#DDDDDD" stop-opacity="0.2"/>
<stop offset="1" stop-color="white" stop-opacity="0"/>
</linearGradient>
<linearGradient id="paint1_linear_3_893" x1="67.5" y1="-28" x2="67.5" y2="272" gradientUnits="userSpaceOnUse">
<stop stop-color="white" stop-opacity="0"/>
<stop offset="0.5" stop-color="#DDDDDD" stop-opacity="0.4"/>
<stop offset="1" stop-color="white" stop-opacity="0"/>
</linearGradient>
<linearGradient id="paint2_linear_3_893" x1="97.5" y1="-28" x2="97.5" y2="272" gradientUnits="userSpaceOnUse">
<stop stop-color="white" stop-opacity="0"/>
<stop offset="0.5" stop-color="#DDDDDD" stop-opacity="0.6"/>
<stop offset="1" stop-color="white" stop-opacity="0"/>
</linearGradient>
<linearGradient id="paint3_linear_3_893" x1="127.5" y1="-28" x2="127.5" y2="272" gradientUnits="userSpaceOnUse">
<stop stop-color="white" stop-opacity="0"/>
<stop offset="0.5" stop-color="#DDDDDD" stop-opacity="0.8"/>
<stop offset="1" stop-color="white" stop-opacity="0"/>
</linearGradient>
<linearGradient id="paint4_linear_3_893" x1="157.5" y1="-28" x2="157.5" y2="272" gradientUnits="userSpaceOnUse">
<stop stop-color="white" stop-opacity="0"/>
<stop offset="0.5" stop-color="#DDDDDD"/>
<stop offset="1" stop-color="white" stop-opacity="0"/>
</linearGradient>
<linearGradient id="paint5_linear_3_893" x1="187.5" y1="-28" x2="187.5" y2="272" gradientUnits="userSpaceOnUse">
<stop stop-color="white" stop-opacity="0"/>
<stop offset="0.5" stop-color="#DDDDDD"/>
<stop offset="1" stop-color="white" stop-opacity="0"/>
</linearGradient>
<linearGradient id="paint6_linear_3_893" x1="217.5" y1="-28" x2="217.5" y2="272" gradientUnits="userSpaceOnUse">
<stop stop-color="white" stop-opacity="0"/>
<stop offset="0.5" stop-color="#DDDDDD"/>
<stop offset="1" stop-color="white" stop-opacity="0"/>
</linearGradient>
<linearGradient id="paint7_linear_3_893" x1="247.5" y1="-28" x2="247.5" y2="272" gradientUnits="userSpaceOnUse">
<stop stop-color="white" stop-opacity="0"/>
<stop offset="0.5" stop-color="#DDDDDD"/>
<stop offset="1" stop-color="white" stop-opacity="0"/>
</linearGradient>
<linearGradient id="paint8_linear_3_893" x1="277.5" y1="-28" x2="277.5" y2="272" gradientUnits="userSpaceOnUse">
<stop stop-color="white" stop-opacity="0"/>
<stop offset="0.5" stop-color="#DDDDDD"/>
<stop offset="1" stop-color="white" stop-opacity="0"/>
</linearGradient>
<linearGradient id="paint9_linear_3_893" x1="307.5" y1="-28" x2="307.5" y2="272" gradientUnits="userSpaceOnUse">
<stop stop-color="white" stop-opacity="0"/>
<stop offset="0.5" stop-color="#DDDDDD" stop-opacity="0.8"/>
<stop offset="1" stop-color="white" stop-opacity="0"/>
</linearGradient>
<linearGradient id="paint10_linear_3_893" x1="337.5" y1="-28" x2="337.5" y2="272" gradientUnits="userSpaceOnUse">
<stop stop-color="white" stop-opacity="0"/>
<stop offset="0.5" stop-color="#DDDDDD" stop-opacity="0.6"/>
<stop offset="1" stop-color="white" stop-opacity="0"/>
</linearGradient>
<linearGradient id="paint11_linear_3_893" x1="367.5" y1="-28" x2="367.5" y2="272" gradientUnits="userSpaceOnUse">
<stop stop-color="white" stop-opacity="0"/>
<stop offset="0.5" stop-color="#DDDDDD" stop-opacity="0.4"/>
<stop offset="1" stop-color="white" stop-opacity="0"/>
</linearGradient>
<linearGradient id="paint12_linear_3_893" x1="397.5" y1="-28" x2="397.5" y2="272" gradientUnits="userSpaceOnUse">
<stop offset="0.2" stop-color="white" stop-opacity="0"/>
<stop offset="0.5" stop-color="#DDDDDD" stop-opacity="0.2"/>
<stop offset="0.8" stop-color="white" stop-opacity="0"/>
</linearGradient>
<linearGradient id="paint13_linear_3_893" x1="-28" y1="32.5" x2="462" y2="32.5" gradientUnits="userSpaceOnUse">
<stop stop-color="white" stop-opacity="0"/>
<stop offset="0.5" stop-color="#DDDDDD" stop-opacity="0.4"/>
<stop offset="1" stop-color="white" stop-opacity="0"/>
</linearGradient>
<linearGradient id="paint14_linear_3_893" x1="-28" y1="62.5" x2="462" y2="62.5" gradientUnits="userSpaceOnUse">
<stop stop-color="white" stop-opacity="0"/>
<stop offset="0.4" stop-color="#DDDDDD" stop-opacity="0.6"/>
<stop offset="0.6" stop-color="#DDDDDD" stop-opacity="0.6"/>
<stop offset="1" stop-color="white" stop-opacity="0"/>
</linearGradient>
<linearGradient id="paint15_linear_3_893" x1="-28" y1="92.5" x2="462" y2="92.5" gradientUnits="userSpaceOnUse">
<stop stop-color="white" stop-opacity="0"/>
<stop offset="0.3" stop-color="#DDDDDD" stop-opacity="0.8"/>
<stop offset="0.7" stop-color="#DDDDDD" stop-opacity="0.8"/>
<stop offset="1" stop-color="white" stop-opacity="0"/>
</linearGradient>
<linearGradient id="paint16_linear_3_893" x1="-29" y1="152.5" x2="461" y2="152.5" gradientUnits="userSpaceOnUse">
<stop stop-color="white" stop-opacity="0"/>
<stop offset="0.3" stop-color="#DDDDDD" stop-opacity="0.8"/>
<stop offset="0.7" stop-color="#DDDDDD" stop-opacity="0.8"/>
<stop offset="1" stop-color="white" stop-opacity="0"/>
</linearGradient>
<linearGradient id="paint17_linear_3_893" x1="-28" y1="122.5" x2="462" y2="122.5" gradientUnits="userSpaceOnUse">
<stop stop-color="white" stop-opacity="0"/>
<stop offset="0.2" stop-color="#997DE3"/>
<stop offset="0.8" stop-color="#997DE3"/>
<stop offset="1" stop-color="white" stop-opacity="0"/>
</linearGradient>
<linearGradient id="paint18_linear_3_893" x1="-28" y1="182.5" x2="462" y2="182.5" gradientUnits="userSpaceOnUse">
<stop stop-color="white" stop-opacity="0"/>
<stop offset="0.4" stop-color="#DDDDDD" stop-opacity="0.6"/>
<stop offset="0.6" stop-color="#DDDDDD" stop-opacity="0.6"/>
<stop offset="1" stop-color="white" stop-opacity="0"/>
</linearGradient>
<linearGradient id="paint19_linear_3_893" x1="-28" y1="212.5" x2="462" y2="212.5" gradientUnits="userSpaceOnUse">
<stop stop-color="white" stop-opacity="0"/>
<stop offset="0.5" stop-color="#DDDDDD" stop-opacity="0.4"/>
<stop offset="1" stop-color="white" stop-opacity="0"/>
</linearGradient>
<clipPath id="clip0_3_893">
<rect width="433" height="244" rx="10" fill="white"/>
</clipPath>
</defs>
</svg>
